<svg width="500" height="500" xmlns="http://www.w3.org/2000/svg" version="1.0" preserveAspectRatio="xMidYMid meet">
 <metadata>Created by potrace 1.16, written by Peter Selinger 2001-2019</metadata>

 <g>
  <title>Xuer's Blog Logo</title>
  <ellipse stroke-width="2" stroke="#ccc" ry="200" rx="200" id="svg_4" cy="248.50001" cx="248" fill="#ffffff"/>
  <g transform="translate(0.000000,500.000000) scale(0.100000,-0.100000)" fill="#46DC2A" id="svg_1">
   <path d="m1390,3630c-11,-11 -20,-30 -20,-42c0,-13 55,-108 121,-213c67,-104 130,-204 141,-222c11,-18 47,-75 81,-127c34,-53 87,-135 117,-183c30,-47 96,-150 146,-227l91,-141l-38,-55c-20,-30 -154,-235 -296,-455c-143,-220 -293,-451 -333,-514c-41,-63 -76,-124 -77,-136c-2,-12 5,-33 16,-46l19,-24l259,-3c246,-3 263,-2 318,19c77,29 122,72 190,182c31,51 75,121 97,157c22,36 48,79 58,95c16,28 52,86 123,198c17,26 34,47 39,47c5,0 7,4 4,9c-3,4 1,16 8,26c14,20 7,29 92,-105c99,-158 265,-422 284,-455c35,-60 89,-114 145,-143l50,-27l275,-3c269,-3 277,-3 303,18c47,37 39,57 -112,270c-33,47 -105,150 -160,230c-55,80 -113,163 -129,185c-26,37 -59,85 -220,318c-35,51 -75,107 -88,125l-25,32l46,78c40,67 140,228 246,397c18,28 50,79 72,115c22,36 50,81 62,100c117,185 261,421 272,449c13,31 13,36 -5,60l-19,26l-279,3l-278,2l-51,-24c-28,-14 -63,-38 -77,-53c-23,-24 -116,-180 -203,-338c-133,-243 -177,-316 -189,-312c-5,2 -27,35 -50,74c-23,40 -102,176 -176,304c-209,360 -191,349 -566,349c-251,0 -265,-1 -284,-20z" id="svg_2"/>
  </g>
 </g>
</svg>